<svg width="400" height="401" viewBox="0 0 400 401" fill="none" xmlns="http://www.w3.org/2000/svg">
<path d="M161.313 90.4924C162.336 80.0254 163.974 69.2429 170.341 60.1446C173.623 61.5146 178.801 65.9693 178.801 65.9693C178.801 65.9693 173.701 73.4532 172.379 91.9486V123.334H183.901V91.2636C184.736 86.1641 185.553 80.0962 187.962 76.3655C192.716 82.7877 193.699 90.3271 194.58 95.8281V123.334H205.725L205.717 95.8281C206.591 90.3271 207.59 82.7877 212.32 76.3655C214.753 80.0962 215.548 86.1641 216.39 91.2636V123.334H227.903V91.9486C226.582 73.4532 221.505 65.9693 221.505 65.9693C221.505 65.9693 226.668 61.5146 229.941 60.1446C236.316 69.2429 237.953 80.0254 238.977 90.4924V123.334H250.507V91.9486C249.925 82.4015 250.239 76.7824 241.534 56.2887C244.463 54.966 248.57 55.0133 250.507 55.0133C267.058 55.0133 295.296 68.6442 295.47 92.082V123.334H306.991V92.6489C306.991 62.3484 273.299 43.5778 250.507 43.5778C248.57 43.5778 240.26 44.3655 235.829 45.8842C233.689 42.9566 230.965 39.3274 228.691 36.5887C239.654 33.1497 241.747 32.8981 250.892 32.8981C278.462 32.8981 317.907 55.6817 318.057 91.3262V123.334H329.587V91.9013C329.587 49.8665 284.703 21.4626 250.507 21.4626C233.758 21.4626 220.836 27.6557 220.497 27.3416C220.001 26.8456 214.949 22.3283 211.935 19.6049C224.181 14.5054 237.466 10.79 250.507 10.79C289.851 10.79 340.495 42.4204 340.645 91.3262V120.572C345.123 112.749 352.175 98.4653 352.175 96.5603C352.175 40.6182 303.355 -0.645436 251.444 0.00764945C231.248 0.26038 218.53 4.08441 200.704 12.2934L200.153 12.5296L199.578 12.2934C181.76 4.08441 169.033 0.26038 148.838 0.00764945C96.9424 -0.645436 48.1074 40.6182 48.1074 96.5603C48.1074 98.4653 55.1591 112.749 59.6457 120.572V91.3262C59.7945 42.4204 110.44 10.79 149.775 10.79C162.832 10.79 176.11 14.5054 188.347 19.6049C185.342 22.3283 180.288 26.8456 179.785 27.3416C179.47 27.6557 166.531 21.4626 149.775 21.4626C115.603 21.4626 70.7115 49.8665 70.7115 91.9013V123.334H82.2332V91.3262C82.3985 55.6817 121.836 32.8981 149.39 32.8981C158.551 32.8981 160.628 33.1497 171.591 36.5887C169.325 39.3274 166.61 42.9566 164.469 45.8842C160.022 44.3655 151.735 43.5778 149.775 43.5778C126.991 43.5778 93.299 62.3484 93.299 92.6489V123.334H104.836V92.082C104.986 68.6442 133.225 55.0133 149.775 55.0133C151.735 55.0133 155.843 54.966 158.755 56.2887C150.058 76.7824 150.358 82.4015 149.792 91.9486V123.334H161.313V90.4924ZM200.704 75.9486L200.153 77.1839L199.578 75.9486C198.279 72.6347 193.03 65.1497 193.03 65.1497C193.03 65.1497 194.045 62.2858 199.578 56.3985L200.153 55.8872L200.704 56.3985C206.237 62.2858 207.276 65.1497 207.276 65.1497C207.276 65.1497 202.01 72.6347 200.704 75.9486ZM217.971 42.8928C217.971 42.8928 222.905 48.395 224.496 51.7396C220.379 54.281 219.058 55.4148 215.767 57.5866C212.407 52.1718 210.636 50.7322 208.849 48.9607C212.053 45.9149 217.971 42.8928 217.971 42.8928ZM199.578 27.4278L200.153 27.1609L200.704 27.4278C202.546 28.1919 207.543 32.2757 209.652 34.385C204.301 37.6433 201.239 40.4529 200.704 40.9489L200.153 41.4366L199.578 40.9489C199.052 40.4529 195.989 37.6433 190.638 34.385C192.746 32.2757 197.744 28.1919 199.578 27.4278ZM182.311 42.8928C182.311 42.8928 188.246 45.9149 191.44 48.9607C189.67 50.7322 187.898 52.1718 184.515 57.5866C181.241 55.4148 179.903 54.281 175.81 51.7396C177.376 48.395 182.311 42.8928 182.311 42.8928Z" fill="white"/>
<path d="M149.794 298.697C153.32 306.387 157.215 314.029 161.316 321.852V291.983H149.794V298.697Z" fill="white"/>
<path d="M172.381 342.919C175.915 350.609 180.59 358.982 183.903 366.845V291.983H172.381V342.919Z" fill="white"/>
<path d="M194.518 387.743C195.557 390.301 199.634 398.581 200.154 400.053C200.665 398.581 204.734 390.301 205.773 387.743L205.749 291.978H194.542L194.518 387.743Z" fill="white"/>
<path d="M216.386 366.845C219.715 358.983 224.383 350.609 227.908 342.919V291.983H216.386V366.845Z" fill="white"/>
<path d="M238.974 321.853C243.066 314.03 246.985 306.388 250.512 298.698V291.977H238.974V321.853Z" fill="white"/>
<path d="M348.228 150.546C349.888 149.5 352.226 148.972 355.264 148.972C360.797 148.972 366.03 150.696 370.957 154.135C371.414 154.449 372.035 154.143 372.035 153.592V141.361C372.035 141.102 371.887 140.858 371.658 140.739C366.455 138.135 360.726 136.828 354.477 136.828C347.307 136.828 341.649 138.537 337.477 141.944C333.314 145.352 331.236 149.995 331.236 155.875C331.236 158.904 331.764 161.438 332.81 163.477C333.857 165.515 335.257 167.199 337.005 168.545C338.745 169.883 340.641 170.992 342.68 171.859C344.718 172.732 346.772 173.511 348.842 174.18C350.904 174.85 352.816 175.518 354.564 176.188C356.311 176.856 357.704 177.691 358.759 178.675C359.805 179.666 360.325 180.917 360.325 182.436C360.325 184.356 359.466 185.845 357.751 186.891C356.035 187.937 353.572 188.465 350.369 188.465C347.221 188.465 344.018 187.954 340.759 186.93C337.886 186.033 335.179 184.79 332.63 183.199C332.172 182.909 331.582 183.224 331.582 183.759L331.59 196.052C331.582 196.327 331.74 196.571 331.984 196.681C334.621 197.878 337.54 198.822 340.759 199.514C344.136 200.238 347.543 200.609 350.982 200.601C358.546 200.609 364.417 198.917 368.58 195.54C372.744 192.164 374.83 187.387 374.83 181.208C374.83 178.005 374.302 175.329 373.255 173.173C372.209 171.016 370.815 169.269 369.069 167.931C367.313 166.593 365.424 165.515 363.386 164.697C361.348 163.886 359.294 163.186 357.224 162.604C355.153 162.02 353.249 161.438 351.502 160.856C349.755 160.274 348.361 159.518 347.307 158.581C346.26 157.653 345.734 156.433 345.741 154.914C345.734 153.049 346.568 151.592 348.228 150.546ZM292.971 157.181L300.22 177.973L285.636 177.982L292.971 157.181ZM307.578 198.838C307.673 199.113 307.924 199.295 308.215 199.295H321.839C322.32 199.295 322.65 198.806 322.468 198.358L298.04 138.559C297.93 138.307 297.685 138.135 297.41 138.142H285.195C284.723 138.135 284.392 138.599 284.549 139.04L286.329 144.171L263.748 198.35C263.56 198.799 263.89 199.295 264.371 199.295H277.727C278.01 199.295 278.269 199.113 278.363 198.838L281.96 188.551H303.974L307.578 198.838ZM230.371 150.546C232.024 149.5 234.369 148.972 237.4 148.972C242.94 148.972 248.165 150.696 253.101 154.135C253.548 154.449 254.171 154.143 254.171 153.592V141.361C254.178 141.102 254.029 140.858 253.793 140.739C248.591 138.135 242.869 136.828 236.612 136.828C229.45 136.828 223.784 138.537 219.62 141.944C215.457 145.352 213.371 149.995 213.371 155.875C213.371 158.904 213.899 161.438 214.945 163.477C215.992 165.515 217.392 167.199 219.14 168.545C220.887 169.883 222.784 170.992 224.822 171.866C226.853 172.732 228.907 173.511 230.977 174.173C233.046 174.85 234.951 175.518 236.699 176.188C238.446 176.856 239.847 177.683 240.894 178.675C241.94 179.666 242.467 180.917 242.467 182.436C242.467 184.356 241.601 185.836 239.894 186.891C238.171 187.937 235.707 188.457 232.511 188.465C229.364 188.465 226.16 187.954 222.895 186.93C220.03 186.033 217.314 184.79 214.765 183.199C214.316 182.909 213.725 183.224 213.725 183.759V196.052C213.725 196.327 213.875 196.571 214.127 196.681C216.756 197.878 219.684 198.822 222.895 199.514C226.271 200.238 229.686 200.601 233.117 200.601C240.689 200.601 246.56 198.917 250.723 195.54C254.886 192.164 256.972 187.379 256.965 181.208C256.972 178.005 256.445 175.329 255.398 173.173C254.351 171.016 252.951 169.269 251.204 167.931C249.456 166.593 247.568 165.515 245.521 164.697C243.491 163.886 241.429 163.186 239.367 162.604C237.297 162.02 235.392 161.438 233.645 160.856C231.897 160.274 230.497 159.518 229.45 158.581C228.403 157.653 227.876 156.425 227.876 154.914C227.876 153.049 228.71 151.592 230.371 150.546ZM189.147 199.295H199.134C199.504 199.295 199.811 198.988 199.811 198.618V138.819C199.811 138.442 199.504 138.135 199.126 138.135L187.297 138.142C186.919 138.142 186.612 138.442 186.612 138.819V174.487L160.964 138.426C160.837 138.245 160.625 138.142 160.404 138.135L146.341 138.142C145.798 138.142 145.475 138.765 145.789 139.213L149.056 143.817L149.048 198.618C149.048 198.988 149.355 199.295 149.733 199.295H161.561C161.939 199.295 162.238 198.988 162.238 198.61L162.246 162.25L188.595 199.011C188.722 199.184 188.926 199.295 189.147 199.295ZM110.349 157.181L117.598 177.973H103.007L110.349 157.181ZM124.957 198.838C125.051 199.113 125.311 199.295 125.594 199.295H139.218C139.698 199.295 140.028 198.806 139.839 198.358L115.418 138.559C115.308 138.307 115.056 138.135 114.788 138.135H102.566C102.101 138.142 101.772 138.599 101.929 139.04L103.707 144.163L81.1279 198.35C80.9389 198.799 81.2696 199.295 81.7491 199.295H95.1049C95.3966 199.295 95.6481 199.113 95.7426 198.838L99.347 188.551H121.361L124.957 198.838ZM75.2253 138.135H59.9646C59.7521 138.135 59.5631 138.23 59.4367 138.387L39.4072 162.91V138.819C39.4155 138.442 39.1084 138.135 38.7305 138.135H25.8542C25.4763 138.135 25.1704 138.442 25.1704 138.819V198.61C25.1704 198.988 25.4763 199.295 25.8542 199.295H38.7222C39.1084 199.295 39.4155 198.988 39.4155 198.61L39.4072 176.384L59.4367 199.066C59.5631 199.207 59.752 199.295 59.9481 199.295H75.1934C75.7839 199.295 76.0898 198.594 75.7048 198.161L49.7798 169.183L75.7367 139.261C76.1217 138.827 75.8064 138.135 75.2253 138.135Z" fill="white"/>
<path d="M148.457 274.705V261.853C148.457 261.294 147.828 260.972 147.387 261.302C144.129 263.742 139.509 265.426 134.377 265.426C123.745 265.426 115.843 256.974 115.843 246.435C115.843 235.992 123.839 227.453 134.377 227.453C139.532 227.453 144.018 229.144 147.387 231.672C147.828 232.001 148.457 231.679 148.457 231.12V218.173C148.457 217.898 148.3 217.654 148.064 217.543C143.979 215.655 139.304 214.553 134.377 214.553C116.52 214.553 102.919 228.027 102.589 245.775C102.305 260.886 112.679 274.437 127.459 277.594C134.889 279.176 142.097 278.082 148.064 275.335C148.3 275.217 148.457 274.974 148.457 274.705Z" fill="white"/>
<path d="M176.297 215.86H163.154C162.785 215.86 162.478 216.167 162.478 216.537V276.335C162.478 276.713 162.785 277.012 163.154 277.012H176.297C176.667 277.012 176.974 276.713 176.974 276.335V216.537C176.974 216.167 176.675 215.86 176.297 215.86Z" fill="white"/>
<path d="M238.324 228.006C238.835 228.006 239.166 227.463 238.922 227.007L233.154 216.216C233.036 215.996 232.799 215.862 232.555 215.862H188.765C188.395 215.862 188.088 216.169 188.088 216.538V227.329C188.088 227.699 188.395 228.006 188.765 228.006H206.52V276.336C206.52 276.714 206.827 277.013 207.205 277.013H220.34C220.718 277.013 221.025 276.714 221.025 276.336V228.006H238.324Z" fill="white"/>
<path d="M257.807 215.862H243.05C242.531 215.862 242.208 216.413 242.452 216.869L262.435 253.34V276.337C262.435 276.714 262.734 277.021 263.112 277.013L276.255 277.021C276.633 277.013 276.94 276.714 276.94 276.337V252.812L297.331 216.877C297.583 216.429 297.253 215.862 296.733 215.862H282.259C282.001 215.862 281.756 216.012 281.646 216.255L270.029 241.196L258.421 216.255C258.31 216.019 258.075 215.862 257.807 215.862Z" fill="white"/>
</svg>
